<svg xmlns="http://www.w3.org/2000/svg" width="45" height="44" viewBox="0 0 45 44" fill="none"><path d="M24.0018 7.01695C20.2453 6.94971 16.5967 8.26667 13.759 10.7142C13.329 11.089 13.0421 11.5994 12.945 12.1596C12.8479 12.7199 12.9466 13.2961 13.2256 13.7924C13.5046 14.2887 13.9457 14.6746 14.4766 14.886C15.0076 15.0975 15.5958 15.1216 16.1424 14.954V15.6646C15.6127 15.7354 15.1285 15.9995 14.7838 16.4054C14.4391 16.8113 14.2596 17.33 14.2784 17.8609C14.2972 18.3917 14.5132 18.8967 14.8857 19.2775C15.2583 19.6583 15.7598 19.8876 16.2931 19.9211C16.4845 20.7969 16.8622 21.6218 17.4004 22.3408C17.9385 23.0599 18.6249 23.6564 19.4137 24.0902V25.7973C19.2355 25.8181 19.0662 25.885 18.9223 25.9916C18.4005 26.3722 18.0104 26.9048 17.8067 27.5154H16.0279C14.7786 27.5156 13.581 28.0092 12.6978 28.8873C11.8146 29.7655 11.3182 30.9563 11.3184 32.198V37.1929C11.3183 37.4173 11.363 37.6396 11.4496 37.8469C11.5362 38.0542 11.6625 38.2425 11.8224 38.401C11.9823 38.5595 12.1735 38.6848 12.3823 38.7702C12.5911 38.8556 12.8141 38.8993 13.0399 38.8985H31.917C32.1427 38.8991 32.366 38.8553 32.5747 38.7698C32.7833 38.6844 32.9734 38.5588 33.1332 38.4003C33.2929 38.2419 33.4195 38.0538 33.506 37.8466C33.5924 37.6393 33.6372 37.4172 33.6372 37.1929V32.198C33.6373 30.9564 33.1408 29.7658 32.2577 28.8877C31.3747 28.0095 30.1768 27.5158 28.9277 27.5154H27.1503C26.9466 26.9048 26.5565 26.3722 26.0347 25.9916C25.8907 25.885 25.7215 25.8181 25.5432 25.7973V24.0902C26.3321 23.6564 27.0184 23.0599 27.5566 22.3408C28.0947 21.6218 28.4725 20.7969 28.6638 19.9211C29.1971 19.8876 29.6987 19.6583 30.0712 19.2775C30.4438 18.8967 30.6598 18.3917 30.6786 17.8609C30.6974 17.33 30.5178 16.8113 30.1731 16.4054C29.8285 15.9995 29.3442 15.7354 28.8146 15.6646V13.0624C28.9655 13.0291 29.1067 12.9621 29.2279 12.8667C29.3491 12.7713 29.4469 12.6498 29.5141 12.5114C29.7557 12.0176 29.882 11.4757 29.8827 10.9265C29.8835 10.3774 29.7585 9.83509 29.5183 9.34055C29.2781 8.84602 28.928 8.41229 28.4949 8.07137C28.0617 7.73044 27.557 7.49132 27.0176 7.37224C26.0267 7.15409 25.0165 7.03507 24.0018 7.01695ZM23.9808 7.58597C24.9571 7.60375 25.9289 7.71859 26.8822 7.92876C27.3383 8.02774 27.765 8.22814 28.1318 8.51513C28.4987 8.80212 28.7964 9.16811 29.0003 9.58551C29.2042 10.0029 29.3102 10.4608 29.3103 10.9248C29.3103 11.3888 29.2041 11.8469 29.0003 12.2644C28.9743 12.3175 28.9387 12.3651 28.8942 12.4042C28.8497 12.4434 28.7968 12.4735 28.7406 12.4927C28.6844 12.5119 28.6254 12.52 28.5661 12.5163C28.5068 12.5126 28.4491 12.4972 28.3957 12.4712C26.498 11.5637 24.3745 11.228 22.2872 11.5059C20.1999 11.7839 18.2397 12.6633 16.6492 14.0353C16.2628 14.3655 15.7612 14.5305 15.253 14.494C14.7447 14.4575 14.271 14.2226 13.9363 13.8406C13.6017 13.4587 13.4323 12.9606 13.4658 12.4552C13.4992 11.9498 13.7329 11.4781 14.115 11.143C16.848 8.7857 20.363 7.51802 23.9808 7.58458V7.58597ZM23.5717 11.9813C23.7865 11.9783 24.0009 11.9822 24.2154 11.9927C25.5804 12.0581 26.9183 12.395 28.15 12.9836C28.1745 12.9963 28.1999 13.0077 28.2254 13.0183V18.5836C28.154 20.0516 27.517 21.436 26.4466 22.4498C25.3761 23.4636 23.9543 24.0292 22.4757 24.0292C20.9971 24.0292 19.5752 23.4636 18.5048 22.4498C17.4343 21.436 16.7974 20.0516 16.726 18.5836V14.6879C16.832 14.6211 16.9328 14.5464 17.0276 14.4645C18.8463 12.8961 21.1642 12.0164 23.5717 11.9813ZM16.1396 16.2392V18.5846C16.1434 18.8368 16.1626 19.0884 16.1968 19.3382C15.827 19.2835 15.4885 19.1002 15.2418 18.8209C14.995 18.5416 14.8563 18.1843 14.8494 17.8127C14.8426 17.441 14.9678 17.079 15.2041 16.7909C15.4404 16.5028 15.772 16.3074 16.1396 16.2392ZM28.8118 16.2392C29.1794 16.3074 29.511 16.5028 29.7473 16.7909C29.9836 17.079 30.1088 17.441 30.1019 17.8127C30.0951 18.1843 29.9563 18.5416 29.7096 18.8209C29.4628 19.1002 29.1244 19.2835 28.7546 19.3382C28.7888 19.0884 28.808 18.8368 28.8118 18.5846V16.2392ZM19.9792 24.3678C20.7679 24.7043 21.6174 24.8778 22.4757 24.8778C23.334 24.8778 24.1835 24.7043 24.9722 24.3678V25.8847C23.9575 26.1971 23.078 26.84 22.4757 27.7097C21.8734 26.84 20.9939 26.1971 19.9792 25.8847V24.3678ZM19.5045 26.3621C19.5494 26.3597 19.5949 26.3641 19.6385 26.375C20.6843 26.6527 21.58 27.3248 22.135 28.2486C22.1613 28.291 22.1766 28.3388 22.1811 28.3884C22.1856 28.438 22.1784 28.488 22.1601 28.5345C22.1419 28.5809 22.1135 28.6224 22.0764 28.6559C22.0392 28.6894 21.9948 28.7139 21.9465 28.7274C20.7516 28.9946 19.5015 28.8619 18.3903 28.3499C18.3449 28.3293 18.3066 28.2945 18.2828 28.251C18.2589 28.2074 18.2504 28.1574 18.2577 28.1084C18.3574 27.445 18.7181 26.8481 19.2602 26.4485C19.3314 26.3967 19.4163 26.3664 19.5045 26.3621ZM25.4385 26.3621C25.5294 26.3649 25.6177 26.3949 25.6912 26.4482C26.2336 26.848 26.5943 27.4455 26.6937 28.1094C26.7026 28.1564 26.6958 28.2049 26.6756 28.2482C26.6553 28.2915 26.6224 28.3274 26.5806 28.3509C25.4636 28.8668 24.2058 28.9991 23.0049 28.727C22.9566 28.7135 22.9122 28.689 22.875 28.6555C22.8379 28.6221 22.8095 28.5805 22.7912 28.5341C22.773 28.4877 22.7658 28.4377 22.7703 28.388C22.7748 28.3384 22.7901 28.2906 22.8164 28.2482C23.3714 27.3245 24.2671 26.6523 25.3128 26.3746C25.3539 26.364 25.3961 26.3592 25.4385 26.3604V26.3621ZM16.0251 28.0844H17.6712C17.6603 28.2472 17.6997 28.4093 17.7843 28.549C17.869 28.6887 17.9948 28.7993 18.1446 28.8658C19.0666 29.2907 20.0804 29.481 21.0948 29.4196C20.8044 30.0049 20.6124 30.6336 20.5265 31.2807H11.9969C12.2057 30.3736 12.7174 29.5636 13.449 28.9831C14.1807 28.4026 15.0889 28.0858 16.0251 28.0844ZM27.2801 28.0844H28.9249C29.8612 28.0856 30.7692 28.4022 31.501 28.9827C32.2328 29.5633 32.7456 30.3734 32.9544 31.2807H23.157C23.2341 31.1693 23.3036 31.0529 23.3651 30.9323C23.5562 30.4419 23.6141 29.9103 23.534 29.3904C24.6527 29.5177 25.7851 29.3362 26.8068 28.8658C26.9566 28.7993 27.0824 28.6887 27.167 28.549C27.2517 28.4093 27.2911 28.2472 27.2801 28.0844ZM22.4757 29.0657C22.5924 29.1738 22.736 29.249 22.8918 29.2835C22.9037 29.2836 22.9162 29.2836 22.9281 29.2835C23.0437 29.7516 23.0164 30.2432 22.8513 30.6964C22.6737 31.0374 22.4202 31.3328 22.1085 31.5596C21.7968 31.7864 21.4364 31.9385 21.0557 32.0037C21.065 31.067 21.3177 30.1488 21.7915 29.3391C21.8803 29.3225 21.9688 29.304 22.0568 29.2835C22.2126 29.249 22.3562 29.1738 22.4729 29.0657H22.4757ZM11.902 31.8497H20.4888C20.4882 31.8987 20.4882 31.9478 20.4888 31.9968C20.4882 32.0814 20.5064 32.1652 20.5419 32.2421C20.5774 32.319 20.6291 32.3872 20.6941 32.4419C20.7591 32.4966 20.8353 32.5364 20.9175 32.5585C20.9997 32.5806 21.0863 32.5846 21.1702 32.57C21.7253 32.4707 22.2421 32.2215 22.6642 31.8497H33.048C33.0529 31.9657 33.0529 32.082 33.048 32.198V34.488H29.3033V33.6178C29.2941 33.5495 29.2605 33.4869 29.2083 33.4415C29.1562 33.3962 29.0891 33.3711 29.0198 33.3711C28.9505 33.3711 28.8835 33.3962 28.8314 33.4415C28.7792 33.4869 28.7456 33.5495 28.7364 33.6178V34.488H16.215V33.6178C16.2071 33.5483 16.1738 33.4843 16.1214 33.4377C16.069 33.3911 16.0004 33.3652 15.9301 33.3652C15.8598 33.3652 15.7927 33.3911 15.7402 33.4377C15.6878 33.4843 15.6545 33.5483 15.6467 33.6178V34.488H11.902V32.198C11.897 32.082 11.897 31.9657 11.902 31.8497ZM11.902 35.057H15.6467V38.3295H13.0371C12.7353 38.3273 12.4469 38.2066 12.2343 37.9937C12.0216 37.7808 11.9021 37.4929 11.902 37.1929V35.057ZM16.215 35.057H28.7364V38.3295H16.215V35.057ZM29.3033 35.057H33.048V37.1929C33.0479 37.4926 32.928 37.7801 32.7157 37.993C32.5033 38.2058 32.2158 38.3269 31.9142 38.3295H29.3033V35.057Z" fill="#8A8A8A" stroke="#8A8A8A" stroke-width="0.448387"></path><path d="M25.7109 16.2114C25.7192 16.1386 25.7122 16.0648 25.6898 15.995C25.6674 15.9252 25.6307 15.8608 25.5816 15.8061C25.5325 15.7515 25.4721 15.7079 25.4048 15.678C25.3376 15.648 25.2648 15.6327 25.1911 15.6327C25.1174 15.6327 25.0447 15.648 24.9774 15.678C24.9101 15.7079 24.8497 15.7515 24.8006 15.8061C24.7515 15.8608 24.7148 15.9252 24.6924 15.995C24.6701 16.0648 24.6631 16.1386 24.6713 16.2114C24.6631 16.2842 24.6701 16.3579 24.6924 16.4277C24.7148 16.4975 24.7515 16.5616 24.8006 16.6162C24.8497 16.6709 24.9101 16.7148 24.9774 16.7447C25.0447 16.7747 25.1174 16.79 25.1911 16.79C25.2648 16.79 25.3376 16.7747 25.4048 16.7447C25.4721 16.7148 25.5325 16.6709 25.5816 16.6162C25.6307 16.5616 25.6674 16.4975 25.6898 16.4277C25.7122 16.3579 25.7192 16.2842 25.7109 16.2114Z" fill="#8A8A8A" stroke="#8A8A8A" stroke-width="0.448387"></path><path d="M20.2846 16.2113C20.293 16.1384 20.2857 16.0646 20.2635 15.9946C20.2412 15.9247 20.2044 15.8602 20.1553 15.8055C20.1062 15.7507 20.0458 15.707 19.9785 15.6769C19.9111 15.6469 19.8373 15.6314 19.7634 15.6314C19.6896 15.6314 19.6171 15.6469 19.5497 15.6769C19.4824 15.707 19.4221 15.7507 19.3729 15.8055C19.3238 15.8602 19.287 15.9247 19.2648 15.9946C19.2425 16.0646 19.2352 16.1384 19.2437 16.2113C19.2352 16.2842 19.2425 16.3581 19.2648 16.428C19.287 16.498 19.3238 16.5624 19.3729 16.6172C19.4221 16.6719 19.4824 16.7157 19.5497 16.7457C19.6171 16.7757 19.6896 16.7913 19.7634 16.7913C19.8373 16.7913 19.9111 16.7757 19.9785 16.7457C20.0458 16.7157 20.1062 16.6719 20.1553 16.6172C20.2044 16.5624 20.2412 16.498 20.2635 16.428C20.2857 16.3581 20.293 16.2842 20.2846 16.2113Z" fill="#8A8A8A" stroke="#8A8A8A" stroke-width="0.448387"></path><path d="M20.5309 20.8705C20.8248 20.4848 21.2076 20.175 21.647 19.9669C21.9068 19.8433 22.1915 19.7791 22.4795 19.7791C22.7675 19.7791 23.0522 19.8433 23.312 19.9669C23.7513 20.1751 24.1329 20.4848 24.4268 20.8705C24.5121 20.982 24.6203 21.0749 24.7434 21.1432C24.8665 21.2115 25.0028 21.2539 25.1431 21.2675C25.2834 21.2811 25.4246 21.2659 25.5587 21.2226C25.6928 21.1792 25.8161 21.1088 25.9215 21.0157C26.0144 20.9309 26.0978 20.8355 26.1682 20.7315C26.21 20.6691 26.2247 20.5929 26.2104 20.5194C26.1962 20.4458 26.1538 20.3809 26.0917 20.3384C26.0296 20.2959 25.9535 20.2792 25.8793 20.2922C25.8051 20.3051 25.7383 20.3466 25.6946 20.4076C25.6514 20.474 25.6003 20.5353 25.5429 20.5902C25.4963 20.6317 25.4427 20.6632 25.3832 20.6826C25.3238 20.702 25.2608 20.7087 25.1985 20.7026C25.1363 20.6966 25.075 20.6777 25.0204 20.6472C24.9659 20.6167 24.9182 20.5753 24.8806 20.5256C24.532 20.0676 24.0787 19.6994 23.5574 19.4519C23.2208 19.2919 22.8526 19.209 22.4795 19.209C22.1064 19.209 21.7382 19.2919 21.4017 19.4519C20.8802 19.6994 20.4258 20.0676 20.0771 20.5256C20.0395 20.5752 19.9918 20.6168 19.9373 20.6472C19.8827 20.6776 19.8227 20.6966 19.7605 20.7026C19.6982 20.7087 19.6352 20.7016 19.5758 20.6823C19.5164 20.6629 19.4614 20.6316 19.4148 20.5902C19.3575 20.5353 19.3063 20.474 19.2631 20.4076C19.2194 20.3466 19.154 20.3051 19.0797 20.2922C19.0055 20.2792 18.9294 20.2959 18.8673 20.3384C18.8053 20.3809 18.7615 20.4458 18.7473 20.5194C18.733 20.5929 18.749 20.6691 18.7908 20.7315C18.8612 20.8355 18.9433 20.9309 19.0362 21.0157C19.1416 21.1087 19.2663 21.1789 19.4003 21.2222C19.5344 21.2656 19.6756 21.2811 19.8159 21.2675C19.9562 21.2539 20.0926 21.2115 20.2156 21.1432C20.3387 21.0749 20.4456 20.982 20.5309 20.8705Z" fill="#8A8A8A" stroke="#8A8A8A" stroke-width="0.448387"></path></svg>