<svg xmlns="http://www.w3.org/2000/svg" width="44" height="44" viewBox="0 0 44 44" fill="none"><mask id="path-1-outside-1_517_1067" maskUnits="userSpaceOnUse" x="7.28906" y="6.65216" width="30" height="30" fill="black"><rect fill="white" x="7.28906" y="6.65216" width="30" height="30"></rect><path d="M34.6429 7.65216H9.99324C9.05227 7.65216 8.28906 8.41537 8.28906 9.35634V34.006C8.28906 34.9469 9.05227 35.7101 9.99324 35.7101H34.6429C35.5838 35.7101 36.347 34.9469 36.347 34.006V9.35634C36.347 8.41537 35.5838 7.65216 34.6429 7.65216ZM35.6627 9.35634V21.3391H30.5301C30.4245 21.3391 30.3216 21.3899 30.2561 21.4755C30.1906 21.561 30.1706 21.6733 30.2013 21.7762L30.8175 23.9348C30.9685 24.4588 30.8656 25.0095 30.5368 25.4439C30.208 25.8783 29.7055 26.1282 29.1615 26.1282C28.6175 26.1282 28.1149 25.8783 27.7861 25.4439C27.4573 25.0095 27.3544 24.4588 27.5054 23.9348L28.1216 21.7762C28.1524 21.6733 28.1323 21.561 28.0668 21.4755C28.0013 21.3899 27.8984 21.3391 27.7928 21.3391H22.6603V16.661L24.3818 17.1542C25.1142 17.3627 25.8841 17.2197 26.4936 16.7612C27.1018 16.2988 27.4506 15.6011 27.4506 14.8379C27.4506 14.0747 27.1018 13.377 26.4923 12.9145C25.8828 12.4561 25.1129 12.3117 24.3804 12.5216L22.6603 13.0148V8.3366H34.6431C35.2044 8.3366 35.6627 8.79494 35.6627 9.35634ZM8.9734 9.35634C8.9734 8.79498 9.43184 8.3365 9.99324 8.3365H21.976V13.4691C21.976 13.5746 22.0268 13.6776 22.1124 13.7431C22.1979 13.8086 22.3102 13.8286 22.4131 13.7979L24.5717 13.1817C25.0957 13.0306 25.6464 13.1336 26.0808 13.4624C26.5152 13.7912 26.7651 14.2937 26.7651 14.8377C26.7651 15.3817 26.5152 15.8843 26.0808 16.2131C25.6464 16.5419 25.0957 16.6448 24.5717 16.4938L22.4131 15.8776C22.3102 15.8468 22.1979 15.8669 22.1124 15.9324C22.0268 15.9979 21.976 16.1008 21.976 16.2064V21.3389H17.2979L17.7911 19.6174C17.9996 18.885 17.8566 18.1151 17.3982 17.5056C16.9357 16.8974 16.238 16.5486 15.4748 16.5486C14.7116 16.5486 14.0139 16.8974 13.5514 17.5069C13.093 18.1164 12.9486 18.8863 13.1585 19.6187L13.6517 21.3389H8.97351L8.9734 9.35634ZM8.9734 34.006V22.0231H14.106C14.2115 22.0231 14.3145 21.9724 14.38 21.8868C14.4455 21.8013 14.4655 21.689 14.4348 21.5861L13.8186 19.4275C13.6675 18.9035 13.7705 18.3528 14.0993 17.9184C14.4281 17.484 14.9306 17.2341 15.4746 17.2341C16.0186 17.2341 16.5212 17.484 16.85 17.9184C17.1788 18.3528 17.2817 18.9035 17.1307 19.4275L16.5145 21.5861C16.4837 21.689 16.5038 21.8013 16.5693 21.8868C16.6348 21.9724 16.7377 22.0231 16.8433 22.0231H21.9758V26.7013L20.2543 26.2081C19.5219 25.9996 18.752 26.1426 18.1425 26.601C17.5343 27.0635 17.1855 27.7612 17.1855 28.5244C17.1855 29.2876 17.5343 29.9853 18.1438 30.4478C18.2187 30.5066 18.2975 30.5574 18.3804 30.6055C18.9444 30.937 19.6154 31.0225 20.2557 30.8421L21.9758 30.3476V35.0257H9.99304C9.43168 35.0257 8.9734 34.5673 8.9734 34.006ZM35.6627 34.006C35.6627 34.5673 35.2043 35.0258 34.6429 35.0258H22.66V29.8932C22.66 29.7876 22.6093 29.6847 22.5237 29.6192C22.4382 29.5537 22.3286 29.5337 22.223 29.5644L20.0644 30.1806C19.5404 30.3316 18.9897 30.2287 18.5553 29.8999C18.1209 29.5711 17.871 29.0686 17.871 28.5246C17.871 27.9806 18.1209 27.478 18.5553 27.1492C18.9897 26.8204 19.5404 26.7175 20.0644 26.8685L22.223 27.4847C22.3259 27.5155 22.4382 27.4954 22.5237 27.4299C22.6093 27.3644 22.66 27.2655 22.66 27.1559V22.0233H27.3382L26.845 23.7449C26.6365 24.4773 26.7795 25.2472 27.2379 25.8567C27.7004 26.4649 28.3981 26.8137 29.1613 26.8137C29.9245 26.8137 30.6222 26.4649 31.0847 25.8554C31.5431 25.2459 31.6875 24.476 31.4776 23.7435L30.9844 22.0233H35.6626L35.6627 34.006Z"></path></mask><path d="M34.6429 7.65216H9.99324C9.05227 7.65216 8.28906 8.41537 8.28906 9.35634V34.006C8.28906 34.9469 9.05227 35.7101 9.99324 35.7101H34.6429C35.5838 35.7101 36.347 34.9469 36.347 34.006V9.35634C36.347 8.41537 35.5838 7.65216 34.6429 7.65216ZM35.6627 9.35634V21.3391H30.5301C30.4245 21.3391 30.3216 21.3899 30.2561 21.4755C30.1906 21.561 30.1706 21.6733 30.2013 21.7762L30.8175 23.9348C30.9685 24.4588 30.8656 25.0095 30.5368 25.4439C30.208 25.8783 29.7055 26.1282 29.1615 26.1282C28.6175 26.1282 28.1149 25.8783 27.7861 25.4439C27.4573 25.0095 27.3544 24.4588 27.5054 23.9348L28.1216 21.7762C28.1524 21.6733 28.1323 21.561 28.0668 21.4755C28.0013 21.3899 27.8984 21.3391 27.7928 21.3391H22.6603V16.661L24.3818 17.1542C25.1142 17.3627 25.8841 17.2197 26.4936 16.7612C27.1018 16.2988 27.4506 15.6011 27.4506 14.8379C27.4506 14.0747 27.1018 13.377 26.4923 12.9145C25.8828 12.4561 25.1129 12.3117 24.3804 12.5216L22.6603 13.0148V8.3366H34.6431C35.2044 8.3366 35.6627 8.79494 35.6627 9.35634ZM8.9734 9.35634C8.9734 8.79498 9.43184 8.3365 9.99324 8.3365H21.976V13.4691C21.976 13.5746 22.0268 13.6776 22.1124 13.7431C22.1979 13.8086 22.3102 13.8286 22.4131 13.7979L24.5717 13.1817C25.0957 13.0306 25.6464 13.1336 26.0808 13.4624C26.5152 13.7912 26.7651 14.2937 26.7651 14.8377C26.7651 15.3817 26.5152 15.8843 26.0808 16.2131C25.6464 16.5419 25.0957 16.6448 24.5717 16.4938L22.4131 15.8776C22.3102 15.8468 22.1979 15.8669 22.1124 15.9324C22.0268 15.9979 21.976 16.1008 21.976 16.2064V21.3389H17.2979L17.7911 19.6174C17.9996 18.885 17.8566 18.1151 17.3982 17.5056C16.9357 16.8974 16.238 16.5486 15.4748 16.5486C14.7116 16.5486 14.0139 16.8974 13.5514 17.5069C13.093 18.1164 12.9486 18.8863 13.1585 19.6187L13.6517 21.3389H8.97351L8.9734 9.35634ZM8.9734 34.006V22.0231H14.106C14.2115 22.0231 14.3145 21.9724 14.38 21.8868C14.4455 21.8013 14.4655 21.689 14.4348 21.5861L13.8186 19.4275C13.6675 18.9035 13.7705 18.3528 14.0993 17.9184C14.4281 17.484 14.9306 17.2341 15.4746 17.2341C16.0186 17.2341 16.5212 17.484 16.85 17.9184C17.1788 18.3528 17.2817 18.9035 17.1307 19.4275L16.5145 21.5861C16.4837 21.689 16.5038 21.8013 16.5693 21.8868C16.6348 21.9724 16.7377 22.0231 16.8433 22.0231H21.9758V26.7013L20.2543 26.2081C19.5219 25.9996 18.752 26.1426 18.1425 26.601C17.5343 27.0635 17.1855 27.7612 17.1855 28.5244C17.1855 29.2876 17.5343 29.9853 18.1438 30.4478C18.2187 30.5066 18.2975 30.5574 18.3804 30.6055C18.9444 30.937 19.6154 31.0225 20.2557 30.8421L21.9758 30.3476V35.0257H9.99304C9.43168 35.0257 8.9734 34.5673 8.9734 34.006ZM35.6627 34.006C35.6627 34.5673 35.2043 35.0258 34.6429 35.0258H22.66V29.8932C22.66 29.7876 22.6093 29.6847 22.5237 29.6192C22.4382 29.5537 22.3286 29.5337 22.223 29.5644L20.0644 30.1806C19.5404 30.3316 18.9897 30.2287 18.5553 29.8999C18.1209 29.5711 17.871 29.0686 17.871 28.5246C17.871 27.9806 18.1209 27.478 18.5553 27.1492C18.9897 26.8204 19.5404 26.7175 20.0644 26.8685L22.223 27.4847C22.3259 27.5155 22.4382 27.4954 22.5237 27.4299C22.6093 27.3644 22.66 27.2655 22.66 27.1559V22.0233H27.3382L26.845 23.7449C26.6365 24.4773 26.7795 25.2472 27.2379 25.8567C27.7004 26.4649 28.3981 26.8137 29.1613 26.8137C29.9245 26.8137 30.6222 26.4649 31.0847 25.8554C31.5431 25.2459 31.6875 24.476 31.4776 23.7435L30.9844 22.0233H35.6626L35.6627 34.006Z" fill="#8A8A8A"></path><path d="M34.6429 7.65216H9.99324C9.05227 7.65216 8.28906 8.41537 8.28906 9.35634V34.006C8.28906 34.9469 9.05227 35.7101 9.99324 35.7101H34.6429C35.5838 35.7101 36.347 34.9469 36.347 34.006V9.35634C36.347 8.41537 35.5838 7.65216 34.6429 7.65216ZM35.6627 9.35634V21.3391H30.5301C30.4245 21.3391 30.3216 21.3899 30.2561 21.4755C30.1906 21.561 30.1706 21.6733 30.2013 21.7762L30.8175 23.9348C30.9685 24.4588 30.8656 25.0095 30.5368 25.4439C30.208 25.8783 29.7055 26.1282 29.1615 26.1282C28.6175 26.1282 28.1149 25.8783 27.7861 25.4439C27.4573 25.0095 27.3544 24.4588 27.5054 23.9348L28.1216 21.7762C28.1524 21.6733 28.1323 21.561 28.0668 21.4755C28.0013 21.3899 27.8984 21.3391 27.7928 21.3391H22.6603V16.661L24.3818 17.1542C25.1142 17.3627 25.8841 17.2197 26.4936 16.7612C27.1018 16.2988 27.4506 15.6011 27.4506 14.8379C27.4506 14.0747 27.1018 13.377 26.4923 12.9145C25.8828 12.4561 25.1129 12.3117 24.3804 12.5216L22.6603 13.0148V8.3366H34.6431C35.2044 8.3366 35.6627 8.79494 35.6627 9.35634ZM8.9734 9.35634C8.9734 8.79498 9.43184 8.3365 9.99324 8.3365H21.976V13.4691C21.976 13.5746 22.0268 13.6776 22.1124 13.7431C22.1979 13.8086 22.3102 13.8286 22.4131 13.7979L24.5717 13.1817C25.0957 13.0306 25.6464 13.1336 26.0808 13.4624C26.5152 13.7912 26.7651 14.2937 26.7651 14.8377C26.7651 15.3817 26.5152 15.8843 26.0808 16.2131C25.6464 16.5419 25.0957 16.6448 24.5717 16.4938L22.4131 15.8776C22.3102 15.8468 22.1979 15.8669 22.1124 15.9324C22.0268 15.9979 21.976 16.1008 21.976 16.2064V21.3389H17.2979L17.7911 19.6174C17.9996 18.885 17.8566 18.1151 17.3982 17.5056C16.9357 16.8974 16.238 16.5486 15.4748 16.5486C14.7116 16.5486 14.0139 16.8974 13.5514 17.5069C13.093 18.1164 12.9486 18.8863 13.1585 19.6187L13.6517 21.3389H8.97351L8.9734 9.35634ZM8.9734 34.006V22.0231H14.106C14.2115 22.0231 14.3145 21.9724 14.38 21.8868C14.4455 21.8013 14.4655 21.689 14.4348 21.5861L13.8186 19.4275C13.6675 18.9035 13.7705 18.3528 14.0993 17.9184C14.4281 17.484 14.9306 17.2341 15.4746 17.2341C16.0186 17.2341 16.5212 17.484 16.85 17.9184C17.1788 18.3528 17.2817 18.9035 17.1307 19.4275L16.5145 21.5861C16.4837 21.689 16.5038 21.8013 16.5693 21.8868C16.6348 21.9724 16.7377 22.0231 16.8433 22.0231H21.9758V26.7013L20.2543 26.2081C19.5219 25.9996 18.752 26.1426 18.1425 26.601C17.5343 27.0635 17.1855 27.7612 17.1855 28.5244C17.1855 29.2876 17.5343 29.9853 18.1438 30.4478C18.2187 30.5066 18.2975 30.5574 18.3804 30.6055C18.9444 30.937 19.6154 31.0225 20.2557 30.8421L21.9758 30.3476V35.0257H9.99304C9.43168 35.0257 8.9734 34.5673 8.9734 34.006ZM35.6627 34.006C35.6627 34.5673 35.2043 35.0258 34.6429 35.0258H22.66V29.8932C22.66 29.7876 22.6093 29.6847 22.5237 29.6192C22.4382 29.5537 22.3286 29.5337 22.223 29.5644L20.0644 30.1806C19.5404 30.3316 18.9897 30.2287 18.5553 29.8999C18.1209 29.5711 17.871 29.0686 17.871 28.5246C17.871 27.9806 18.1209 27.478 18.5553 27.1492C18.9897 26.8204 19.5404 26.7175 20.0644 26.8685L22.223 27.4847C22.3259 27.5155 22.4382 27.4954 22.5237 27.4299C22.6093 27.3644 22.66 27.2655 22.66 27.1559V22.0233H27.3382L26.845 23.7449C26.6365 24.4773 26.7795 25.2472 27.2379 25.8567C27.7004 26.4649 28.3981 26.8137 29.1613 26.8137C29.9245 26.8137 30.6222 26.4649 31.0847 25.8554C31.5431 25.2459 31.6875 24.476 31.4776 23.7435L30.9844 22.0233H35.6626L35.6627 34.006Z" stroke="#8A8A8A" stroke-width="0.597849" mask="url(#path-1-outside-1_517_1067)"></path></svg>