<svg xmlns="http://www.w3.org/2000/svg" width="45" height="44" viewBox="0 0 45 44" fill="#8A8A8A"><path d="M23.9 7.7l.2.2c.2.2.5.3.7.4.3.1.6.1.8 0l.3-.1c.7-.1 1.5 0 2 .4.6.3 1.1.9 1.4 1.6l.1.3c.1.3.2.5.4.7.2.2.4.3.7.4l.3.1c.7.3 1.2.7 1.6 1.3v.1c.3.6.5 1.3.3 2l-.1.3c0 .3 0 .6.1.8.1.3.2.5.4.8l.2.2c.5.6.7 1.3.7 2s-.2 1.4-.7 1.9l-.2.2c-.2.2-.3.5-.4.7-.1.3-.1.6 0 .9l.1.3c.1.7 0 1.4-.4 2-.2.4-.6.7-1 1l4.2 7.2c.2.3.3.7.3 1.1 0 .4-.1.7-.4 1.1s-.6.6-1 .7c-.3.1-.7.1-1.1 0l-3.1-.7-.9 3c-.1.4-.3.7-.6 1-.3.2-.6.4-1 .4s-.8-.1-1.1-.2c-.3-.2-.6-.4-.8-.8l-4.1-7.1-4.1 7.1c-.2.3-.5.6-.8.8-.3.2-.7.2-1.1.2s-.7-.1-1-.4l-.1-.1c-.3-.2-.5-.6-.6-1l-.9-3-3.1.7c-.4.1-.8.1-1.1 0s-.7-.3-.9-.7-.3-.7-.3-1.1.1-.7.3-1.1l4.2-7.2c-.4-.3-.8-.6-1-1-.3-.6-.5-1.3-.4-2l.1-.3c0-.3 0-.6 0-.9-.1-.2-.2-.5-.4-.7l-.2-.2c-.4-.6-.7-1.3-.7-2s.2-1.4.7-1.9l.2-.2c.2-.2.3-.5.4-.8 0-.3.1-.6 0-.9l-.1-.3c-.1-.7 0-1.4.4-2 .3-.6.8-1.1 1.5-1.4l.3-.1c.3-.1.5-.2.7-.4.2-.2.4-.5.5-.8l.1-.3c.3-.7.8-1.2 1.3-1.6.6-.3 1.3-.5 2-.4l.3.1c.3 0 .6 0 .8 0h.1l.8-.3.2-.2c.6-.5 1.3-.7 2-.7.7 0 1.4.2 1.9.7h.1zm6.7 18.6c-.3.1-.5.3-.7.4-.2.2-.3.5-.4.7l-.1.3c-.3.7-.8 1.2-1.4 1.6h-.1c-.6.3-1.3.5-2 .4l-.3-.1c-.3 0-.6-.1-.8 0-.3.1-.5.2-.7.4l-.2.2c-.3.3-.8.5-1.2.6l4.2 7.3c.1.2.2.3.4.4s.3.1.5.1.4 0 .5-.1.3-.2.4-.3l1.1-3.4c.1-.3.3-.5.6-.4l3.6.8c.2 0 .4 0 .5-.1.2-.1.3-.2.4-.3s.2-.3.2-.5 0-.4-.1-.5l-4.3-7.3h.1zM21.2 30.8c-.4-.1-.8-.3-1.1-.6l-.2-.2c-.2-.2-.5-.3-.8-.4-.3-.1-.5-.1-.8 0l-.3.1c-.7.1-1.5 0-2-.4-.6-.3-1.1-.9-1.4-1.6l-.1-.3c-.1-.3-.2-.5-.4-.7-.2-.2-.4-.3-.7-.4l-4.3 7.3c-.1.2-.1.3-.1.5s.1.3.2.5.2.2.4.3.3.1.5.1l3.6-.8c.3-.1.5.1.6.4l1.1 3.4c.1.2.1.3.3.4h.1c.1.1.3.2.5.2s.3 0 .5-.1c.1-.1.3-.2.4-.4l4.2-7.3v.1zM18 18.6c-.2-.2-.2-.5 0-.7s.5-.2.7 0l2.5 2.5 4-3.9c.2-.2.5-.2.7 0 .2.2.2.6 0 .8l-4.4 4.3c-.2.2-.5.2-.7 0l-2.8-2.9v-.1zM22 11c2.2 0 4.3.9 5.7 2.3 1.5 1.4 2.4 3.4 2.4 5.6s-.9 4.2-2.3 5.6h-.1c-1.5 1.4-3.5 2.3-5.7 2.3s-4.3-.9-5.7-2.3c-1.5-1.4-2.4-3.4-2.4-5.6s.9-4.2 2.3-5.6h.1c1.5-1.3 3.5-2.1 5.7-2.1v-.2zm5 3c-1.3-1.3-3-2-5-2s-3.7.8-5 2h-.1c-1.3 1.3-2 3-2 5s.8 3.7 2 5c1.3 1.3 3 2 5 2s3.7-.8 5-2h.1c1.3-1.3 2-3 2-5s-.8-3.7-2-5zm-3.5-5.3l-.2-.2c-.4-.3-.8-.4-1.3-.4s-.8.1-1.3.4l-.2.2c-.3.3-.7.5-1.1.6h-.1c-.4.1-.8.1-1.2 0l-.3-.1c-.5-.1-.9 0-1.3.2s-.8.6-.9 1.1l-.1.3c-.2.4-.4.8-.7 1.1s-.7.5-1.1.7l-.3.1c-.5.2-.8.5-1.1.9s-.3.9-.2 1.4l.1.3c.1.5.1.9 0 1.3v.1c-.1.4-.3.8-.6 1.2l-.2.2c-.4.4-.6.8-.6 1.3s.2.9.6 1.3l.2.2c.3.3.5.7.6 1.1.1.4.1.9 0 1.3l-.1.3c-.1.5 0 1 .2 1.4.2.4.6.8 1.1.9l.3.1c.4.2.8.4 1.1.7.3.3.6.7.7 1.1l.1.3c.2.4.5.8.9 1.1.4.2.8.4 1.3.2l.3-.1c.4-.1.9-.1 1.3 0 .4.1.8.3 1.2.6l.2.2c.4.3.8.5 1.3.5s.9-.2 1.2-.5l.2-.2c.4-.3.8-.5 1.2-.6.4-.1.9-.1 1.3 0l.3.1c.5.1.9 0 1.3-.2h.1c.4-.2.7-.6.9-1.1l.1-.3c.2-.4.4-.8.7-1.1.3-.3.7-.5 1.1-.7l.3-.1c.5-.2.8-.5 1.1-.9.2-.4.4-.9.2-1.4l-.1-.3c-.1-.4-.1-.9 0-1.3.1-.4.3-.8.6-1.2l.2-.2c.3-.4.6-.8.6-1.3s-.3-.9-.6-1.3l-.2-.2c-.3-.3-.5-.7-.6-1.1-.1-.4-.1-.9 0-1.3l.1-.3c.1-.5 0-.9-.2-1.3v-.1c-.2-.4-.6-.8-1.1-.9l-.3-.1c-.4-.2-.8-.4-1.1-.8-.3-.3-.5-.7-.7-1.1l-.1-.3c-.2-.4-.5-.8-.9-1.1-.4-.2-.9-.3-1.3-.2l-.3.1c-.4.1-.9.1-1.3 0-.4-.1-.8-.3-1.2-.6z"/></svg>
