<svg xmlns="http://www.w3.org/2000/svg" width="44" height="44" viewBox="0 0 44 44" fill="#8A8A8A"><path d="M34.6 7.7H10c-.9 0-1.7.7-1.7 1.7v24.6c0 .9.8 1.7 1.7 1.7h24.6c.9 0 1.7-.8 1.7-1.7V9.4c0-.9-.8-1.7-1.7-1.7zm1 1.7v12h-5.1l.6 2.2c.2.5 0 1.1-.3 1.5-.3.4-.8.7-1.3.7-.6 0-1.1-.3-1.4-.7-.3-.4-.4-1-.3-1.5l.6-2.2h-5.1v-4.7l1.7.5c.7.2 1.5.1 2.1-.4.6-.4 1-.1.1 1.4.4s.6-.8.3-1.4l-1.7-.6V8.3h12.7c.6 0 1 .5 1 1zm-26.7 0c0-.5.5-1 1-1H22v5.1l2.2-.6c.5-.1 1.1 0 1.5.3.4.3.7.8.7 1.4 0 .5-.3 1-.7 1.4-.4.3-1 .4-1.5.3l-2.2-.6v5.1h-3.7l.5-1.7c.2-.7.1-1.5-.4-2.1-.5-.6-1.2-.9-1.9-.9s-1.4.3-1.9.9c-.5.6-.6 1.4-.4 2.1l.5 1.7H9V9.4zm0 24.6V22h5.1l-.6 2.2c-.2.5 0 1.1.3 1.5.3.4.9.7 1.4.7s1.1-.3 1.4-.7c.3-.4.4-1 .3-1.5l-.6-2.2H22v4.7l-1.7-.5c-.7-.2-1.5-.1-2.1.4-.6.5-1 1.2-1 2 0 .8.4 1.5 1 2l.1.1c.6.3 1.3.4 1.9.2l1.7-.5v4.7H10c-.6 0-1-.5-1-1zm26.7 0c0 .6-.5 1-1 1H22.7v-5.1l-2.2.6c-.5.2-1.1 0-1.5-.3-.4-.3-.7-.8-.7-1.4 0-.5.3-1 .7-1.4.4-.3 1-.4 1.5-.3l2.2.6v-5.1h4.7l-.5 1.7c-.2.7-.1 1.5.4 2.1.5.6 1.2 1 2 1s1.5-.4 2-1c.5-.6.6-1.4.4-2.1l-.5-1.7h4.7v12z"/></svg>
