<svg xmlns="http://www.w3.org/2000/svg" width="45" height="44" viewBox="0 0 45 44" fill="none"><path d="M23.942 7.7071L24.1571 7.88059C24.3874 8.06638 24.6385 8.19616 24.9035 8.26584C25.1684 8.33553 25.4528 8.34781 25.7483 8.29863L26.023 8.25491C26.7472 8.13743 27.4562 8.27541 28.0513 8.61418C28.6465 8.9516 29.1251 9.48847 29.3845 10.1661L29.483 10.4229C29.5885 10.6988 29.7411 10.9351 29.9339 11.125C30.1268 11.3149 30.3668 11.4652 30.647 11.569L30.9064 11.666C31.5946 11.9215 32.1398 12.3914 32.4825 12.9761L32.5005 13.0089C32.8307 13.5881 32.9653 14.2752 32.8473 14.976L32.8015 15.2451C32.753 15.5361 32.7655 15.8162 32.8362 16.0785C32.907 16.3394 33.0388 16.5866 33.2275 16.8134L33.4037 17.0252C33.8712 17.5866 34.1057 18.2629 34.1057 18.9363C34.1057 19.6098 33.8712 20.286 33.4037 20.8474L33.2275 21.0592C33.0388 21.2887 32.9056 21.5373 32.8362 21.7955C32.7655 22.0564 32.753 22.3365 32.8015 22.6275L32.8473 22.8979C32.9666 23.6111 32.8251 24.3091 32.4825 24.8951C32.255 25.2845 31.9387 25.6219 31.5502 25.8801L35.7648 33.085C35.9591 33.4183 36.0465 33.7871 36.0257 34.1492C36.0049 34.5126 35.8758 34.8691 35.6428 35.1806C35.4097 35.492 35.1003 35.7188 34.7549 35.8431C34.4094 35.9688 34.0265 35.9947 33.6436 35.9073L30.5665 35.2106L29.6411 38.1818C29.526 38.5534 29.3109 38.8676 29.0279 39.0985C28.7421 39.3294 28.3897 39.4796 27.9999 39.5233C27.61 39.5657 27.2313 39.4987 26.9011 39.3334C26.5723 39.1709 26.2907 38.91 26.0965 38.5739L21.9997 31.4893L17.9029 38.5739C17.7087 38.9113 17.4271 39.1709 17.0983 39.3348C16.7653 39.4987 16.388 39.567 15.9995 39.5233C15.6263 39.4823 15.2878 39.343 15.0103 39.1272L14.9715 39.0985C14.6885 38.8676 14.4734 38.5534 14.3583 38.1818L13.4329 35.2106L10.3558 35.9073C9.97286 35.9934 9.58996 35.9688 9.2445 35.8431C8.89905 35.7174 8.58966 35.492 8.3566 35.1805C8.12353 34.8691 7.99313 34.5125 7.9737 34.1492C7.95289 33.7885 8.0403 33.421 8.23591 33.085L12.452 25.8801C12.0635 25.6219 11.7472 25.2845 11.5183 24.8951C11.1743 24.3104 11.0328 23.611 11.1521 22.8966L11.1965 22.6274C11.245 22.3365 11.2326 22.0564 11.1618 21.7941C11.091 21.5332 10.9592 21.286 10.7706 21.0592L10.5652 20.8119C10.1171 20.2573 9.89238 19.5961 9.89238 18.9363C9.89238 18.2628 10.1268 17.5866 10.5944 17.0251L10.7706 16.8134C10.9593 16.5866 11.0911 16.3393 11.1618 16.0784L11.1674 16.0593C11.2326 15.8038 11.2437 15.5293 11.1965 15.2451L11.1521 14.9746C11.0328 14.2615 11.1729 13.5634 11.517 12.9774C11.8596 12.3914 12.4049 11.9215 13.093 11.666L13.3538 11.569C13.6327 11.4665 13.8713 11.3163 14.0655 11.125C14.2597 10.9338 14.4123 10.6974 14.5178 10.4229L14.6163 10.166C14.8757 9.48982 15.3529 8.95294 15.9481 8.61553C16.5419 8.27674 17.2536 8.1374 17.9778 8.2549L18.2511 8.29861C18.5466 8.34643 18.831 8.33413 19.096 8.26446L19.1168 8.259C19.3734 8.18933 19.6176 8.06091 19.8437 7.87924L20.0588 7.70575C20.629 7.24538 21.3157 7.0145 21.9997 7.0145C22.685 7.01723 23.3717 7.24673 23.9405 7.70575L23.942 7.7071ZM30.5888 26.3268C30.3335 26.4292 30.1157 26.5713 29.934 26.7503C29.7397 26.9415 29.5871 27.1779 29.4831 27.4511L29.3846 27.7065C29.1252 28.3841 28.6479 28.921 28.0541 29.2584L28.0208 29.2761C27.4326 29.6013 26.7348 29.7338 26.0231 29.6177L25.7498 29.5726C25.4543 29.5248 25.1699 29.5371 24.9035 29.6067C24.6385 29.6764 24.3874 29.8062 24.1571 29.992L23.9254 30.1778C23.5813 30.451 23.197 30.6436 22.7961 30.7515L27.0207 38.0589C27.1081 38.2119 27.2344 38.328 27.3814 38.4004C27.5285 38.4742 27.7019 38.5042 27.885 38.4837C28.0654 38.4632 28.2263 38.3963 28.3512 38.2952C28.4788 38.1887 28.5759 38.0466 28.6287 37.8758L29.6983 34.4388C29.7801 34.1751 30.0562 34.0221 30.324 34.0822L33.8827 34.8869C34.0589 34.9265 34.2337 34.9155 34.3904 34.8582C34.5444 34.8022 34.6845 34.6983 34.7914 34.5563C34.8982 34.4142 34.9579 34.253 34.9662 34.0918C34.9759 33.9292 34.9343 33.7612 34.8427 33.6055L30.5879 26.3258L30.5888 26.3268ZM21.2048 30.7528C20.7983 30.6435 20.4071 30.4482 20.0602 30.1668L19.8452 29.9933C19.6121 29.8075 19.3596 29.6777 19.0974 29.608C18.8324 29.5383 18.548 29.526 18.2525 29.5739L17.9778 29.6189C17.2536 29.7364 16.5433 29.5971 15.9496 29.2597C15.3544 28.9223 14.8772 28.3854 14.6177 27.7078L14.5192 27.451C14.4138 27.175 14.2625 26.9387 14.0697 26.7502C13.8894 26.5726 13.6702 26.4319 13.4163 26.3294L9.15581 33.6078C9.06563 33.7608 9.0254 33.9302 9.03511 34.0941C9.04483 34.2553 9.1031 34.4165 9.20992 34.5599C9.31674 34.702 9.45687 34.8058 9.61086 34.8618C9.76624 34.9178 9.94243 34.9301 10.1186 34.8905L13.6773 34.0845C13.9576 34.0217 14.2378 34.1897 14.3099 34.4615L15.3726 37.8781C15.4254 38.0475 15.5225 38.1909 15.6501 38.2948L15.6751 38.3152C15.7958 38.4068 15.9484 38.4669 16.1163 38.486C16.2994 38.5065 16.4728 38.4764 16.6199 38.404C16.7655 38.3303 16.8918 38.2142 16.9792 38.0612L21.2038 30.7538L21.2048 30.7528ZM17.9834 18.6015C17.7753 18.3966 17.7753 18.0646 17.9834 17.8597C18.1915 17.6548 18.5286 17.6548 18.7367 17.8597L21.2659 20.3501L25.2657 16.4116C25.4738 16.2067 25.8109 16.2067 26.019 16.4116C26.2271 16.6165 26.2271 16.9485 26.019 17.1534L21.642 21.4633C21.4339 21.6682 21.0968 21.6682 20.8887 21.4633L17.9836 18.6027L17.9834 18.6015ZM22.001 10.9707C24.2332 10.9707 26.2558 11.8627 27.7197 13.304C29.1848 14.7452 30.0921 16.7383 30.0921 18.9376C30.0921 21.1368 29.1861 23.1286 27.7225 24.5698L27.6906 24.5985C26.2283 26.0233 24.2181 26.903 22.0009 26.903C19.7687 26.903 17.7461 26.011 16.2822 24.5697C14.8172 23.1285 13.9098 21.1368 13.9098 18.9375C13.9098 16.7383 14.8158 14.7451 16.2794 13.3039L16.3113 13.2752C17.7736 11.8504 19.7838 10.9707 22.001 10.9707ZM26.9689 14.0457C25.6981 12.7944 23.9418 12.0198 22.001 12.0198C20.0739 12.0198 18.3272 12.7835 17.0579 14.0198L17.0329 14.0457C15.7621 15.2971 14.9755 17.0265 14.9755 18.9376C14.9755 20.8474 15.7621 22.5768 17.0329 23.8281C18.3037 25.0793 20.0601 25.854 22.0009 25.854C23.9279 25.854 25.6746 25.0903 26.944 23.854L26.9689 23.828C28.2397 22.5767 29.0264 20.8473 29.0264 18.9376C29.0264 17.0279 28.2398 15.297 26.9689 14.0457ZM23.4825 8.68806L23.2675 8.51457C22.8957 8.21403 22.4476 8.06238 22.0009 8.06238C21.5528 8.06512 21.1047 8.21402 20.7342 8.5132L20.5192 8.6867C20.1751 8.96401 19.7992 9.15938 19.3982 9.26866L19.3719 9.27549C18.9626 9.38341 18.5298 9.40254 18.0817 9.33014L17.8084 9.28642C17.3325 9.20855 16.8678 9.29872 16.482 9.51865C16.095 9.73723 15.7842 10.0883 15.6136 10.5336L15.5151 10.7905C15.3541 11.2112 15.1211 11.5705 14.8214 11.8656C14.5218 12.1606 14.1555 12.3901 13.7296 12.5486L13.4688 12.6456C13.0179 12.8123 12.6614 13.1196 12.438 13.5008C12.2146 13.8805 12.1245 14.3382 12.2021 14.8081L12.2465 15.0786C12.3187 15.5089 12.302 15.9269 12.198 16.3231L12.191 16.3477C12.0814 16.7507 11.8817 17.1305 11.5917 17.4775L11.4155 17.6892C11.1117 18.054 10.9591 18.4952 10.9591 18.9364C10.9591 19.3668 11.1047 19.7971 11.3933 20.1564L11.5945 20.3954C11.8817 20.7424 12.0828 21.1222 12.1911 21.5252C12.3007 21.9282 12.3201 22.3544 12.2465 22.7956L12.2022 23.0648C12.1231 23.5333 12.2146 23.9909 12.438 24.3707C12.66 24.7519 13.0165 25.0579 13.4688 25.2259L13.7282 25.3229C14.15 25.48 14.5162 25.7095 14.8173 26.0059C15.1211 26.3051 15.3542 26.6657 15.5137 27.081L15.6122 27.3379C15.7815 27.7818 16.0936 28.1329 16.4807 28.3528C16.8663 28.5728 17.3311 28.6616 17.8084 28.5851L18.0831 28.54C18.5298 28.4676 18.9626 28.4867 19.3733 28.5946C19.7853 28.7039 20.1696 28.9006 20.5206 29.1821L20.7357 29.3583C21.1061 29.6575 21.5542 29.8077 22.0023 29.8077C22.4462 29.8077 22.8902 29.6602 23.2578 29.3665L23.4854 29.1835C23.8364 28.9007 24.222 28.7026 24.6299 28.596C25.0392 28.4881 25.4721 28.469 25.9202 28.5414L26.1935 28.5865C26.6596 28.6616 27.1161 28.5783 27.4962 28.3693L27.5198 28.3542C27.9054 28.1343 28.2176 27.7832 28.3882 27.3392L28.4867 27.0838C28.6463 26.6644 28.8808 26.3037 29.1804 26.0087C29.4801 25.7136 29.8463 25.4841 30.2722 25.3257L30.5344 25.2287C30.9853 25.062 31.3419 24.7546 31.5652 24.3735C31.7886 23.9937 31.8788 23.5361 31.8011 23.0661L31.7553 22.7957C31.6818 22.3558 31.7012 21.9282 31.8108 21.5266C31.9218 21.1208 32.1215 20.7411 32.4073 20.3968L32.5863 20.1851C32.8901 19.8203 33.0428 19.3791 33.0428 18.9378C33.0428 18.4966 32.8901 18.0554 32.5863 17.6906L32.4101 17.4789C32.1216 17.1319 31.9204 16.7521 31.8108 16.3491C31.7012 15.9461 31.6818 15.5199 31.7553 15.0786L31.8011 14.8095C31.8774 14.3505 31.7928 13.9011 31.5805 13.5267L31.5652 13.5035C31.3419 13.1238 30.9853 12.8164 30.5345 12.6484L30.275 12.5514C29.8519 12.3943 29.4856 12.1634 29.1846 11.8683C28.8821 11.5705 28.6491 11.2099 28.4895 10.7932L28.391 10.5364C28.2218 10.0924 27.9096 9.74136 27.5226 9.52142C27.1369 9.30148 26.6721 9.21269 26.1949 9.28919L25.9202 9.3329C25.4735 9.4053 25.0392 9.38618 24.63 9.27826C24.2207 9.17034 23.8349 8.97357 23.4825 8.68806Z" fill="#8A8A8A"></path></svg>