<svg xmlns="http://www.w3.org/2000/svg" width="45" height="44" viewBox="0 0 45 44" fill="#8A8A8A"><path d="M13.2 30c-.6 0-1.3.4-1.3 1.2s.6 1.3 1.3 1.3 1.2-.4 1.2-1.3-.6-1.2-1.2-1.2z"/><path d="M34.7 25.5h-7.7l9.6-9.6c1-.1 1-.9 0-1.7l-4.4-4.4c-1-1-2.6-1-3.7 0l-9.6 9.6V9.7c0-.7-.3-1.4-.8-1.9s-1.1-.7-1.8-.8h-6.1c-1.5 0-2.7 1.2-2.7 2.7v21.6c0 1.5.6 3 1.7 4.1 1.1 1.1 2.5 1.7 4.1 1.7h21.6c1.5 0 2.7-1.2 2.7-2.7v-6.2c0-1.5-1.2-2.6-2.7-2.7zM18.9 19.1l10.5-10.5c.6-.5 1.5-.5 2 0l4.4 4.4c.3.3.4.6.4 1s-.1.7-.4 1L25.3 25.5h-6.4v-6.4zm-5.4 16.7h-.1-.3c-1.2 0-2.4-.5-3.2-1.3-.9-.9-1.3-2-1.3-3.3V9.7c0-.4.2-.7.4-1 .3-.3.6-.4 1-.4h6.1c.4 0 .8.2 1.1.4.3.3.4.6.4 1.1v21.5c0 2.4-1.9 4.4-4.2 4.6zm22.3-.5c-.3.3-.6.4-1.1.4h-18l.3-.3c1.2-1.1 1.9-2.6 1.9-4.3v-4.5h15.9c.4 0 .8.1 1.1.4.3.3.4.6.4 1.1v6.2c0 .4-.2.7-.4 1z"/></svg>
