<svg xmlns="http://www.w3.org/2000/svg" width="45" height="44" viewBox="0 0 45 44" fill="none"><g clip-path="url(#clip0_517_1072)"><path d="M13.187 29.9846C12.5835 29.9846 11.9355 30.3768 11.9355 31.2361C11.9355 32.0955 12.5835 32.4876 13.187 32.4876C13.7906 32.4876 14.4385 32.0955 14.4385 31.2361C14.4385 30.3768 13.7906 29.9846 13.187 29.9846Z" fill="#8A8A8A"></path><path d="M34.7467 25.5038H27.0434L36.6257 15.9113C37.6419 14.8781 37.6419 13.1969 36.6257 12.1637L32.271 7.79881C31.2207 6.80989 29.5737 6.80989 28.52 7.80222L18.9207 17.3913V9.68798C18.9207 8.97869 18.6444 8.31032 18.1466 7.80904C17.6453 7.30094 16.9769 7.01791 16.2676 7.0145H10.1227C8.64956 7.0145 7.44922 8.21484 7.44922 9.68798V31.2464C7.44922 32.7775 8.04939 34.22 9.13379 35.3043C10.2182 36.3887 11.6572 36.9855 13.1918 36.9889H34.7502C36.2233 36.9889 37.4236 35.7886 37.4236 34.3154V28.1603C37.4134 26.6974 36.2165 25.5072 34.7502 25.5072L34.7467 25.5038ZM18.9207 19.0895L29.393 8.61722C29.9658 8.0682 30.8627 8.0682 31.439 8.61722L35.8175 13.0162C36.0903 13.289 36.2404 13.6539 36.2404 14.0426C36.2404 14.4314 36.0903 14.7928 35.8175 15.0691L25.3486 25.5379H18.9207V19.0929V19.0895ZM13.5055 35.7749H13.4953H13.1918H13.1781C11.988 35.7749 10.8252 35.2941 9.98289 34.4552C9.12356 33.5993 8.65297 32.4604 8.65638 31.2464V9.68798C8.64274 9.29924 8.79619 8.9139 9.07582 8.63768C9.35203 8.36147 9.73737 8.20802 10.1295 8.21825H16.2915C16.6768 8.21825 17.0485 8.37511 17.3179 8.65132C17.5839 8.92754 17.734 9.30606 17.7203 9.69139V31.2464C17.7271 33.6198 15.8755 35.6078 13.5055 35.7749ZM35.7936 35.3589C35.5276 35.6249 35.1594 35.7749 34.7808 35.7749C34.7672 35.7749 34.757 35.7749 34.7433 35.7749H16.7314L17.0519 35.4783C18.2284 34.3905 18.9002 32.8491 18.89 31.2464V26.7076H34.7467C35.1287 26.7076 35.5038 26.8576 35.7732 27.1304C36.0494 27.4067 36.1994 27.7715 36.196 28.1603L36.2165 34.3154C36.2267 34.7042 36.0698 35.0861 35.7936 35.3623V35.3589Z" fill="#8A8A8A"></path></g><defs><clipPath id="clip0_517_1072"><rect width="29.971" height="29.971" fill="white" transform="translate(7.44922 7.0145)"></rect></clipPath></defs></svg>