<svg xmlns="http://www.w3.org/2000/svg" width="45" height="44" viewBox="0 0 45 44" fill="#8A8A8A"><path d="M24 7c-3.8-.1-7.4 1.2-10.2 3.7-.4.4-.7.9-.8 1.4-.1.6 0 1.1.3 1.6.3.5.7.9 1.3 1.1.5.2 1.1.2 1.7 0v.7c-.5.1-1 .4-1.3.8-.4.4-.5.9-.5 1.5 0 .5.2 1 .6 1.4.4.4.9.6 1.4.6.2.9.6 1.7 1.1 2.4.6.7 1.2 1.3 2 1.8v1.7c-.2 0-.4.1-.5.2-.5.4-.9.9-1.1 1.5h-1.8c-1.2 0-2.4.5-3.3 1.4-.9.9-1.4 2.1-1.4 3.3v5c0 .5.2.9.5 1.2.3.3.8.5 1.2.5h18.9c.5 0 .9-.2 1.2-.5.3-.3.5-.8.5-1.2v-5c0-1.2-.5-2.4-1.4-3.3-.9-.9-2.1-1.4-3.3-1.4h-1.8c-.2-.6-.6-1.1-1.1-1.5-.1-.1-.3-.2-.5-.2v-1.7c.8-.4 1.4-1 2-1.8.5-.7.9-1.5 1.1-2.4.5 0 1-.2 1.4-.6.4-.4.6-.9.6-1.4 0-.5-.2-1-.5-1.5-.4-.4-.9-.7-1.4-.7v-2.6c.2 0 .3-.1.4-.2.1-.1.2-.2.3-.4.2-.5.4-1 .4-1.5s-.1-1.1-.4-1.6c-.2-.5-.6-.9-1-.1.3-.3-.4-.5-.9-.6-1-.2-2-.3-3-.4zm0 .6c1 0 2 .1 2.9.3.5.1.9.3 1.3.6.4.3.7.7.9 1.1.2.4.3.9.3 1.4s-.1.9-.3 1.3c0 .1-.1.1-.1.1 0 .1-.1.1-.2.1h-.2l-.1-.1c-1.9-.9-4-.2-6.4 0-2.1.3-4.1 1.2-5.6 2.5-.4.3-.9.5-1.4.5-.5 0-1-.2-1.3-.6-.3-.4-.5-.9-.5-1.4 0-.5.2-1 .6-1.3 2.7-2.4 6.2-3.7 9.9-3.6zM23.6 12c.2 0 .4 0 .6 0 1.4.1 2.7.4 3.9 1 0 0 0 0 .1.1v5.6c-.1 1.5-.7 2.9-1.8 3.9-1.1 1-2.5 1.6-4 1.6s-2.9-.6-4-1.6c-1-1-1.6-2.4-1.8-3.9v-3.9c.1-.1.2-.1.3-.2 1.8-1.6 4.1-2.5 6.5-2.6zm-7.4 4.2v2.4c0 .3 0 .5.1.8-.4-.1-.7-.3-1-.6-.2-.3-.4-.6-.4-1 0-.4.1-.7.3-1 .3-.3.6-.5 1-.6zm12.7 0c.4.1.7.3 1 .6.2.3.3.6.3 1s-.1.7-.4 1c-.2.3-.6.5-1 .6.1-.3.1-.5.1-.8v-2.4zM20 24.4c.8.3 1.6.5 2.5.5s1.7-.2 2.5-.5v1.5c-1 .3-1.9 1-2.5 1.8-.6-.9-1.5-1.5-2.5-1.8v-1.5zm-.5 1.9c0 0 .1 0 .1 0 1 .3 1.9 1 2.4 1.9 0 0 0 .1 0 .1s0 .1 0 .2c0 0-.1.1-.1.1-.1 0-.1.1-.2.1-1.2.3-2.4.1-3.6-.4 0 0-.1-.1-.1-.1 0 0 0-.1 0-.1.1-.7.5-1.3 1-.7.1-.1.2-.1.3-.1zm5.9 0c.1 0 .2 0 .3.1.5.4.9 1 1 1.7 0 0 0 .1 0 .1s0 .1-.1.1c-1.1.5-2.4.7-3.6.4-.1 0-.1-.1-.2-.1 0 0-.1-.1-.1-.1s0-.1 0-.2c0 0 0-.1 0-.1.6-.9 1.5-1.6 2.5-1.9h.2zM16 28.1h1.7c0 .2 0 .3.1.5.1.1.2.3.4.4.9.4 1.9.6 2.9.5-.3.6-.5 1.2-.6 1.9H12c.2-.9.7-1.7 1.4-2.3.8-.6 1.7-.9 2.6-1zm11.3 0h1.6c.9 0 1.8.3 2.5.9.7.6 1.2 1.4 1.4 2.3h-9.8c.1-.1.1-.2.2-.3.2-.5.2-1 .2-1.5 1.1.1 2.3-.1 3.3-.6.2-.1.3-.2.4-.4 0-.2.1-.3.1-.4zm-4.8.9c.1.1.3.2.4.2h.1c.1.5.1 1-.1 1.4-.2.3-.4.6-.8.9-.3.2-.7.4-1 .5 0-.9.3-1.8.7-2.7.1 0 .2 0 .3-.1.2 0 .3-.1.4-.2zM11.9 31.8h8.6v.2c0 .1 0 .2.1.2 0 .1.1.2.2.2.1.1.2.1.2.2.1 0 .2 0 .2 0 .6-.1 1.1-.3 1.5-.7h10.4v2.3h-3.7v-.9c0-.1 0-.1-.1-.2 0 0-.1-.1-.2-.1s-.1 0-.2.1c0 0-.1.1-.1.2v.9H16.2v-.9c0-.1 0-.1-.1-.2 0 0-.1-.1-.2-.1s-.2 0-.2.1c-.1 0-.1.1-.1.2v.9h-3.7v-2.2zM11.9 35.1h3.7v3.2h-2.6c-.3 0-.6-.1-.8-.3-.2-.2-.3-.5-.3-.8v-2.1zm4.3 0h12.5v3.2H16.2v-3.2zm13.1 0h3.7v2.1c0 .3-.1.6-.3.8-.2.2-.5.3-.9.3h-2.5v-3.2z"/><path d="M25.7 16.2c0-.1 0-.2 0-.2 0-.1-.1-.1-.1-.2 0-.1-.1-.1-.2-.1-.1-.1-.1-.1-.2-.1s-.2 0-.2.1c-.1 0-.1.1-.2.1 0 .1-.1.1-.1.2 0 .1 0 .1 0 .2 0 .1 0 .2 0 .2 0 .1.1.1.1.2 0 .1.1.1.2.1.1.1.1.1.2.1s.2 0 .2-.1c.1 0 .1-.1.2-.1 0-.1.1-.1.1-.2 0-.1 0-.1 0-.2zM20.3 16.2c0-.1 0-.2 0-.2 0-.1-.1-.1-.1-.2 0-.1-.1-.1-.2-.1-.1-.1-.1-.1-.2-.1s-.2 0-.2.1c-.1 0-.1.1-.2.1 0 .1-.1.1-.1.2 0 .1 0 .1 0 .2 0 .1 0 .2 0 .2 0 .1.1.1.1.2 0 .1.1.1.2.1.1.1.1.1.2.1s.2 0 .2-.1c.1 0 .1-.1.2-.1 0-.1.1-.1.1-.2 0-.1 0-.1 0-.2zM20.5 20.9c.3-.4.7-.7 1.1-.9.3-.1.6-.2.9-.2s.6.1.9.2c.4.2.8.5 1.1.9.1.1.2.2.3.3.1.1.3.1.4.1.1 0 .3 0 .4-.1.1 0 .2-.1.3-.2.1-.1.2-.2.2-.3.1-.1.1-.1.1-.2 0-.1 0-.1 0-.2s-.1-.1-.2-.1c-.1 0-.1 0-.2.1s-.1.1-.2.2c0 .1-.1.1-.1.2-.1 0-.1.1-.2.1 0 0-.1 0-.2 0 0 0-.1 0-.2-.1-.1 0-.1-.1-.1-.2-.3-.5-.8-.8-1.3-1-.3-.2-.7-.3-1.1-.3s-.8.1-1.1.3c-.5.2-1 .6-1.3 1-.1.1-.1.1-.2.2 0 .1-.1.1-.2.1s-.1 0-.2 0c-.1 0-.1 0-.2-.1 0-.1-.1-.1-.1-.2 0-.1-.1-.1-.2-.2s-.1-.1-.2-.1-.1 0-.2.1c-.1 0-.1.1-.1.2 0 .1 0 .1.1.2.1.1.1.2.2.3.1.1.2.2.3.2.1.1.2.1.4.1.1 0 .3 0 .4-.1.1-.1.2-.2.3-.3z"/></svg>
